<?xml version="1.0" standalone="no"?>
<!DOCTYPE svg PUBLIC "-//W3C//DTD SVG 20010904//EN"
 "http://www.w3.org/TR/2001/REC-SVG-20010904/DTD/svg10.dtd">
<svg version="1.0" xmlns="http://www.w3.org/2000/svg"
 width="314.000000pt" height="161.000000pt" viewBox="0 0 314.000000 161.000000"
 preserveAspectRatio="xMidYMid meet">

<g transform="translate(0.000000,161.000000) scale(0.100000,-0.100000)"
fill="#000000" stroke="none">
<path d="M1580 1566 c0 -19 4 -24 15 -19 18 6 16 34 -2 41 -8 2 -13 -6 -13
-22z"/>
<path d="M1584 1332 c4 -13 -2 -21 -24 -29 -17 -6 -30 -17 -30 -23 0 -7 12 -4
33 8 37 23 57 19 50 -8 -3 -11 -9 -17 -14 -14 -5 3 -9 0 -9 -5 0 -6 10 -11 21
-11 16 0 20 5 16 20 -3 11 -2 20 2 20 19 0 5 28 -21 43 -28 16 -29 16 -24 -1z"/>
<path d="M1490 1300 c-8 -5 -10 -10 -5 -10 6 0 17 5 25 10 8 5 11 10 5 10 -5
0 -17 -5 -25 -10z"/>
<path d="M1678 1290 c18 -11 40 -20 50 -20 9 0 -3 9 -27 20 -55 26 -65 25 -23
0z"/>
<path d="M1640 1271 c0 -25 20 -38 21 -14 0 16 1 16 9 -2 5 -11 9 -14 9 -6 1
11 4 11 16 1 9 -7 18 -11 21 -8 4 5 -60 48 -72 48 -2 0 -4 -9 -4 -19z"/>
<path d="M1323 1226 c-62 -28 -113 -56 -113 -62 0 -6 10 -19 23 -30 l22 -19
-19 23 c-11 12 -17 24 -15 26 13 12 203 95 209 91 3 -2 7 2 7 10 0 8 -1 15 -1
14 -1 -1 -52 -24 -113 -53z"/>
<path d="M1476 1265 c-19 -15 -19 -15 2 -15 12 0 22 6 22 13 0 8 4 7 10 -3 8
-13 10 -12 10 3 0 21 -18 22 -44 2z"/>
<path d="M1539 1259 c-10 -6 -7 -9 14 -9 29 0 35 5 14 13 -8 3 -20 1 -28 -4z"/>
<path d="M1770 1251 c14 -11 30 -21 35 -21 11 0 -7 14 -40 31 -13 7 -12 3 5
-10z"/>
<path d="M1338 1203 c-43 -20 -78 -40 -78 -46 0 -6 4 -6 13 0 6 6 48 27 92 46
44 20 73 36 65 36 -8 0 -50 -16 -92 -36z"/>
<path d="M1538 1233 c6 -2 18 -2 25 0 6 3 1 5 -13 5 -14 0 -19 -2 -12 -5z"/>
<path d="M1780 1213 c30 -13 71 -34 90 -45 22 -14 30 -15 20 -5 -19 20 -133
77 -151 76 -8 0 11 -12 41 -26z"/>
<path d="M1618 1223 c6 -2 18 -2 25 0 6 3 1 5 -13 5 -14 0 -19 -2 -12 -5z"/>
<path d="M1840 1215 c0 -2 22 -16 50 -32 55 -31 57 -35 35 -53 -11 -9 -15 -35
-17 -89 -1 -72 -1 -73 -8 -26 l-7 50 -2 -65 c-1 -73 -9 -110 -22 -110 -5 0 -9
18 -9 40 0 22 -4 40 -10 40 -6 0 -10 36 -10 89 0 83 -1 89 -19 84 -14 -4 -21
1 -24 19 l-4 23 -2 -23 c-1 -16 6 -26 19 -29 18 -5 20 -14 20 -79 0 -72 -1
-74 -25 -74 -26 0 -31 13 -18 47 6 15 9 13 14 -12 6 -25 7 -23 8 18 1 44 -11
63 -22 35 -4 -10 -6 -10 -6 0 -1 6 -10 12 -20 12 -12 0 -21 9 -24 23 -3 12 -3
-6 0 -39 3 -38 0 -64 -6 -69 -8 -4 -11 19 -11 74 0 45 -4 81 -9 81 -5 0 -7
-18 -4 -41 l6 -41 -43 3 c-41 3 -44 2 -47 -26 -2 -17 -8 -40 -14 -52 -6 -11
-9 -27 -6 -35 4 -9 6 -7 6 5 1 17 4 18 39 21 12 0 19 13 24 41 4 24 5 9 2 -37
l-4 -78 44 0 c70 0 139 -12 124 -21 -9 -6 -5 -9 14 -9 15 0 33 7 42 15 10 11
36 15 85 15 79 0 79 0 57 73 -11 38 -11 47 0 51 12 5 27 -22 22 -40 -1 -5 1
-26 5 -46 6 -26 13 -38 25 -38 12 0 14 2 4 8 -7 5 -17 35 -23 68 -6 32 -14 75
-19 94 l-8 35 -1 -36 c-1 -31 -5 -38 -26 -43 -23 -6 -24 -8 -10 -22 8 -8 16
-20 16 -25 2 -13 6 -29 9 -31 9 -12 6 -38 -5 -38 -11 0 -31 61 -27 81 0 3 -5
6 -13 6 -8 0 -12 -4 -10 -8 3 -4 -12 -21 -33 -39 -20 -17 -27 -26 -15 -21 29
14 33 14 33 -4 0 -21 -49 -20 -57 1 -3 9 0 20 7 24 9 6 13 30 11 80 -2 62 1
75 19 95 l21 22 -43 25 c-46 26 -78 40 -78 33z m-78 -185 c-2 -22 -6 -40 -8
-40 -2 0 -4 18 -4 40 0 22 3 40 8 40 4 0 6 -18 4 -40z m-52 -4 c0 -8 -4 -18
-10 -21 -5 -3 -10 3 -10 14 0 12 5 21 10 21 6 0 10 -6 10 -14z m14 -73 c-9
-39 -14 -41 -15 -7 l-1 29 -8 -30 c-7 -29 -8 -29 -9 -4 -1 29 6 39 26 39 10 0
12 -8 7 -27z m72 5 c-4 6 -2 12 3 12 6 0 11 -6 11 -12 0 -9 4 -8 10 2 8 13 10
12 10 -2 0 -10 5 -18 10 -18 6 0 10 -4 10 -10 0 -5 -6 -7 -14 -4 -8 3 -17 0
-21 -5 -3 -6 -11 -9 -16 -5 -5 3 -7 10 -4 15 4 5 2 9 -4 9 -5 0 -13 -4 -16
-10 -12 -20 -26 -10 -15 10 6 11 8 26 4 33 -4 6 3 3 16 -8 13 -11 20 -14 16
-7z m-54 -20 c-8 -8 -9 -4 -5 13 4 13 8 18 11 10 2 -7 -1 -18 -6 -23z m251 10
c6 -21 2 -36 -7 -27 -10 11 -16 49 -8 49 5 0 12 -10 15 -22z"/>
<path d="M1381 1168 c0 -9 -9 -18 -18 -21 -15 -3 -14 -4 2 -4 11 -1 32 -1 48
-2 l27 -1 -1 -77 c0 -51 -3 -71 -9 -58 -4 11 -6 34 -3 50 4 23 2 27 -6 15 -9
-12 -13 -13 -20 -2 -16 26 -46 9 -50 -28 l-4 -35 -7 30 -8 30 -1 -32 c0 -18 3
-33 8 -33 5 0 17 -3 27 -7 10 -4 15 -2 11 3 -3 6 -2 16 4 24 7 12 9 12 9 -3 0
-10 4 -16 9 -13 5 3 11 -1 15 -9 3 -8 12 -15 21 -15 12 0 15 16 15 88 l0 89
-29 -5 c-22 -3 -30 0 -34 15 -4 15 -5 15 -6 1z"/>
<path d="M1660 1166 c0 -8 -12 -16 -27 -18 -14 -2 -28 -9 -29 -16 -1 -7 0 -8
3 -2 2 5 18 10 34 10 22 0 29 5 29 20 0 11 -2 20 -5 20 -3 0 -5 -6 -5 -14z"/>
<path d="M1510 1149 c0 -5 9 -9 20 -9 11 0 20 2 20 4 0 2 -9 6 -20 9 -11 3
-20 1 -20 -4z"/>
<path d="M1461 1128 c1 -16 3 -18 6 -6 2 9 12 19 21 21 12 3 10 5 -5 6 -18 1
-23 -4 -22 -21z"/>
<path d="M1740 1139 c0 -5 5 -7 10 -4 6 3 10 8 10 11 0 2 -4 4 -10 4 -5 0 -10
-5 -10 -11z"/>
<path d="M1893 1105 c0 -22 2 -30 4 -17 2 12 2 30 0 40 -3 9 -5 -1 -4 -23z"/>
<path d="M1368 1123 c12 -2 30 -2 40 0 9 3 -1 5 -23 4 -22 0 -30 -2 -17 -4z"/>
<path d="M1488 1123 c7 -3 16 -2 19 1 4 3 -2 6 -13 5 -11 0 -14 -3 -6 -6z"/>
<path d="M1130 1085 c0 -14 -5 -25 -11 -25 -5 0 -7 -4 -4 -10 3 -5 -1 -24 -10
-41 -12 -23 -13 -29 -3 -24 7 4 -2 -5 -20 -20 -18 -15 -29 -31 -26 -37 4 -6 0
-14 -7 -19 -12 -7 -11 -9 1 -9 8 0 21 14 28 30 14 30 32 40 32 18 1 -7 7 2 15
21 17 38 19 53 5 31 -16 -25 -21 -5 -7 29 7 17 16 29 18 26 3 -3 4 9 1 25 -5
36 -12 39 -12 5z"/>
<path d="M1561 1093 c-1 -15 -6 -21 -15 -17 -11 4 -15 -7 -17 -45 l-4 -51 31
2 c26 2 30 5 25 22 -4 18 -6 19 -9 3 -2 -9 -8 -15 -13 -12 -13 8 -11 59 2 72
6 6 9 19 6 29 -4 16 -5 15 -6 -3z"/>
<path d="M1602 1090 c0 -14 2 -19 5 -12 2 6 2 18 0 25 -3 6 -5 1 -5 -13z"/>
<path d="M1260 1046 c0 -43 -3 -55 -12 -50 -10 6 -9 3 0 -8 8 -9 13 -25 12
-35 -4 -33 0 -56 7 -49 8 8 5 187 -3 195 -2 2 -4 -21 -4 -53z"/>
<path d="M1462 1075 c0 -16 2 -22 5 -12 2 9 2 23 0 30 -3 6 -5 -1 -5 -18z"/>
<path d="M1483 1040 c2 -27 -2 -40 -10 -40 -9 0 -13 -15 -13 -44 0 -43 -1 -45
-32 -49 -18 -2 15 -4 75 -4 83 0 105 2 97 12 -5 6 -9 14 -7 16 1 2 -3 -1 -9
-8 -6 -7 -26 -13 -44 -13 l-32 0 5 88 c4 54 3 74 -2 52 l-8 -35 -2 33 c0 17
-5 32 -10 32 -6 0 -9 -18 -8 -40z m15 -97 l-1 -38 -5 35 -5 35 -7 -35 -7 -35
-2 38 c-1 27 3 37 14 37 11 0 15 -10 13 -37z"/>
<path d="M1157 1028 c-3 -13 -9 -34 -13 -48 -7 -23 -7 -24 9 -8 9 9 17 24 17
32 0 9 4 16 9 16 16 0 23 -20 13 -33 -5 -7 -12 -29 -16 -49 l-7 -38 43 2 43 1
-37 4 c-42 5 -45 10 -23 39 14 19 15 19 21 -3 5 -20 8 -21 21 -7 14 13 13 17
-2 34 -9 10 -14 24 -9 31 4 7 3 10 -4 5 -6 -3 -14 -1 -19 6 -4 7 -15 19 -24
26 -14 11 -17 9 -22 -10z m64 -55 c13 -16 12 -17 -3 -4 -10 7 -18 15 -18 17 0
8 8 3 21 -13z"/>
<path d="M1032 1011 c-30 -15 -53 -31 -52 -35 1 -4 -6 -19 -15 -34 -15 -25
-14 -25 9 3 14 17 26 33 26 36 0 3 11 11 25 17 30 14 31 13 3 -35 -12 -21 -17
-33 -11 -28 10 10 74 105 70 105 -1 -1 -26 -13 -55 -29z"/>
<path d="M1461 1024 c0 -11 3 -14 6 -6 3 7 2 16 -1 19 -3 4 -6 -2 -5 -13z"/>
<path d="M2090 1026 c0 -3 14 -12 30 -21 17 -9 30 -23 31 -33 0 -10 3 -12 6
-4 9 23 22 12 29 -23 4 -23 12 -35 23 -35 13 0 13 2 2 9 -7 5 -13 20 -13 33 0
20 -11 30 -47 49 -63 32 -61 31 -61 25z"/>
<path d="M2101 989 c-2 -30 21 -79 37 -79 14 0 14 1 0 13 -9 6 -21 28 -26 47
-6 19 -11 28 -11 19z"/>
<path d="M1353 979 c-27 -8 -33 -14 -32 -37 2 -24 2 -24 6 -4 3 16 14 25 34
29 16 3 32 10 35 14 6 11 0 10 -43 -2z"/>
<path d="M1561 954 c0 -11 3 -14 6 -6 3 7 2 16 -1 19 -3 4 -6 -2 -5 -13z"/>
<path d="M904 946 c-10 -8 -17 -17 -14 -19 3 -3 16 3 29 14 27 22 15 26 -15 5z"/>
<path d="M1362 930 c0 -19 2 -27 5 -17 2 9 2 25 0 35 -3 9 -5 1 -5 -18z"/>
<path d="M1401 944 c0 -11 3 -14 6 -6 3 7 2 16 -1 19 -3 4 -6 -2 -5 -13z"/>
<path d="M1421 944 c0 -11 3 -14 6 -6 3 7 2 16 -1 19 -3 4 -6 -2 -5 -13z"/>
<path d="M1650 933 c0 -22 -2 -25 -10 -13 -5 8 -10 10 -10 4 0 -15 29 -39 37
-30 3 3 2 6 -4 6 -5 0 -8 14 -5 30 2 17 2 30 -2 30 -3 0 -6 -12 -6 -27z"/>
<path d="M2221 952 c0 -4 4 -16 8 -26 7 -19 8 -19 13 1 4 14 0 24 -8 27 -8 3
-14 2 -13 -2z"/>
<path d="M1118 929 c-13 -14 -14 -19 -3 -23 7 -2 15 4 19 17 7 27 5 28 -16 6z"/>
<path d="M1341 933 c0 -13 -5 -23 -10 -23 -5 0 -11 -6 -14 -14 -5 -12 18 -14
136 -13 l142 1 -120 5 -120 6 -6 30 c-5 23 -7 25 -8 8z"/>
<path d="M2161 934 c0 -11 3 -14 6 -6 3 7 2 16 -1 19 -3 4 -6 -2 -5 -13z"/>
<path d="M2260 930 c0 -5 5 -10 11 -10 5 0 7 5 4 10 -3 6 -8 10 -11 10 -2 0
-4 -4 -4 -10z"/>
<path d="M828 914 c-36 -19 -35 -24 5 -23 20 1 25 3 13 6 -18 5 -18 6 5 19 13
7 20 13 14 13 -5 0 -22 -7 -37 -15z"/>
<path d="M1140 910 c0 -5 5 -10 11 -10 5 0 7 5 4 10 -3 6 -8 10 -11 10 -2 0
-4 -4 -4 -10z"/>
<path d="M918 903 c23 -2 59 -2 80 0 20 2 1 4 -43 4 -44 0 -61 -2 -37 -4z"/>
<path d="M2256 893 c-6 -14 -5 -15 5 -6 7 7 10 15 7 18 -3 3 -9 -2 -12 -12z"/>
<path d="M2293 903 c9 -2 14 -9 11 -15 -4 -6 -2 -8 4 -4 6 3 13 2 17 -4 3 -5
10 -10 16 -10 5 0 4 9 -3 20 -8 12 -23 20 -38 19 -17 -1 -19 -3 -7 -6z"/>
<path d="M2133 893 c9 -2 23 -2 30 0 6 3 -1 5 -18 5 -16 0 -22 -2 -12 -5z"/>
<path d="M1028 883 c7 -3 16 -2 19 1 4 3 -2 6 -13 5 -11 0 -14 -3 -6 -6z"/>
<path d="M1248 883 c12 -2 30 -2 40 0 9 3 -1 5 -23 4 -22 0 -30 -2 -17 -4z"/>
<path d="M1738 883 c18 -2 45 -2 60 0 15 2 0 4 -33 4 -33 0 -45 -2 -27 -4z"/>
<path d="M1988 883 c6 -2 18 -2 25 0 6 3 1 5 -13 5 -14 0 -19 -2 -12 -5z"/>
<path d="M938 873 c12 -2 30 -2 40 0 9 3 -1 5 -23 4 -22 0 -30 -2 -17 -4z"/>
<path d="M2395 850 c4 -6 -8 -11 -27 -11 l-33 -2 33 -6 c18 -3 33 -9 32 -13
-2 -48 2 -98 8 -98 13 0 8 129 -6 135 -7 3 -10 0 -7 -5z"/>
<path d="M680 840 c-13 -9 -13 -10 0 -10 8 0 22 5 30 10 13 9 13 10 0 10 -8 0
-22 -5 -30 -10z"/>
<path d="M1488 843 c12 -2 30 -2 40 0 9 3 -1 5 -23 4 -22 0 -30 -2 -17 -4z"/>
<path d="M1588 843 c12 -2 32 -2 45 0 12 2 2 4 -23 4 -25 0 -35 -2 -22 -4z"/>
<path d="M1808 843 c23 -2 61 -2 85 0 23 2 4 4 -43 4 -47 0 -66 -2 -42 -4z"/>
<path d="M2108 843 c34 -2 90 -2 125 0 34 2 6 3 -63 3 -69 0 -97 -1 -62 -3z"/>
<path d="M728 798 c-3 -24 -1 -47 3 -52 5 -6 9 10 9 37 l0 47 35 0 35 0 0 -70
0 -70 33 1 c23 1 26 3 10 6 -21 4 -23 10 -23 68 l0 64 88 4 c66 2 55 3 -49 5
l-137 2 -4 -42z"/>
<path d="M1028 833 c7 -3 16 -2 19 1 4 3 -2 6 -13 5 -11 0 -14 -3 -6 -6z"/>
<path d="M1151 783 c-1 -57 1 -63 19 -63 11 0 20 6 20 13 0 6 5 4 11 -5 15
-27 29 -22 28 10 0 24 -1 25 -9 7 -7 -17 -9 -15 -9 13 -1 21 -7 35 -18 39 -15
6 -14 8 7 14 23 7 23 7 -7 8 -17 1 -34 7 -36 14 -3 6 -6 -16 -6 -50z"/>
<path d="M1248 833 c17 -2 47 -2 65 0 17 2 3 4 -33 4 -36 0 -50 -2 -32 -4z"/>
<path d="M1363 826 c17 -14 23 -36 9 -36 -4 0 -14 6 -20 12 -10 10 -15 10 -21
-1 -7 -11 -10 -10 -13 5 -3 10 -5 -6 -6 -37 -1 -51 1 -58 21 -63 54 -14 58
-11 55 59 l-3 64 40 4 c29 3 24 4 -20 5 -52 1 -58 0 -42 -12z m17 -96 c0 -22
-25 -27 -50 -9 -12 8 -9 9 13 5 20 -5 27 -3 27 9 0 8 2 15 5 15 3 0 5 -9 5
-20z"/>
<path d="M2311 816 c-7 -12 -11 -34 -8 -47 4 -20 4 -19 6 7 0 16 6 35 13 42 6
6 9 14 7 17 -3 3 -11 -6 -18 -19z"/>
<path d="M1082 810 c0 -14 2 -19 5 -12 2 6 2 18 0 25 -3 6 -5 1 -5 -13z"/>
<path d="M1643 770 c0 -36 2 -50 4 -32 2 17 2 47 0 65 -2 17 -4 3 -4 -33z"/>
<path d="M1727 823 c-11 -11 -8 -48 5 -61 10 -10 10 -15 0 -21 -22 -13 -4 -51
24 -51 10 0 14 16 14 60 0 55 -2 60 -22 61 -19 1 -17 3 7 9 29 7 29 8 4 9 -14
0 -29 -2 -32 -6z"/>
<path d="M1816 764 c4 -74 5 -77 26 -69 20 8 18 120 -3 120 -8 0 -17 4 -20 8
-3 5 -4 -22 -3 -59z"/>
<path d="M1883 785 c0 -27 2 -38 4 -22 2 15 2 37 0 50 -2 12 -4 0 -4 -28z"/>
<path d="M1978 823 c-2 -5 -5 -32 -7 -60 -1 -38 2 -53 11 -54 7 -1 2 -5 -12
-10 -15 -5 31 -6 115 -2 77 3 146 6 153 6 8 0 12 16 12 46 0 33 -3 42 -10 31
-8 -12 -10 -10 -10 9 0 17 -4 22 -16 17 -9 -3 -17 -6 -18 -6 -8 0 9 -76 18
-82 6 -4 -10 -8 -36 -8 l-48 0 -1 63 c0 44 -3 56 -9 42 -8 -18 -9 -18 -9 -2
-1 13 -7 17 -23 15 -21 -3 -23 -9 -24 -60 -1 -32 2 -56 6 -53 5 3 11 1 15 -5
4 -6 -11 -10 -40 -10 -30 0 -44 4 -40 10 4 6 1 18 -6 26 -8 10 -9 18 -3 22 5
4 11 22 12 40 3 23 -1 32 -12 32 -8 0 -16 -3 -18 -7z m116 -11 c-6 -4 -14 -14
-17 -22 -4 -10 -6 -8 -6 8 -1 15 5 22 17 22 10 0 13 -3 6 -8z"/>
<path d="M2198 823 c7 -3 16 -2 19 1 4 3 -2 6 -13 5 -11 0 -14 -3 -6 -6z"/>
<path d="M904 811 c4 -6 2 -11 -3 -11 -6 0 -11 -5 -11 -11 0 -5 5 -7 10 -4 12
8 13 9 -4 -45 l-14 -45 39 -2 c39 -1 39 -1 38 35 -3 46 -14 68 -40 83 -15 8
-19 8 -15 0z m46 -96 c0 -8 -9 -10 -25 -7 -14 2 -25 10 -25 17 0 8 9 10 25 7
14 -2 25 -10 25 -17z"/>
<path d="M1012 795 c0 -16 2 -22 5 -12 2 9 2 23 0 30 -3 6 -5 -1 -5 -18z"/>
<path d="M1037 813 c-4 -3 -7 -23 -7 -43 0 -29 4 -36 20 -37 16 -1 20 4 20 33
0 26 -4 34 -17 34 -15 0 -16 2 -3 10 8 5 10 10 4 10 -6 0 -14 -3 -17 -7z"/>
<path d="M1420 806 c0 -8 5 -18 10 -21 6 -3 10 -16 10 -28 0 -16 -3 -18 -9 -8
-6 9 -9 -1 -9 -28 -1 -36 2 -41 22 -41 22 0 24 4 24 70 0 67 -1 70 -24 70 -14
0 -24 -6 -24 -14z m37 -78 c-3 -8 -6 -5 -6 6 -1 11 2 17 5 13 3 -3 4 -12 1
-19z m3 -28 c0 -5 -4 -10 -9 -10 -6 0 -13 5 -16 10 -3 6 1 10 9 10 9 0 16 -4
16 -10z"/>
<path d="M1541 788 l1 -33 8 30 c6 25 8 20 9 -27 1 -49 -2 -58 -16 -59 -11 0
-13 -3 -5 -6 6 -2 12 -14 11 -26 0 -21 -1 -21 -9 -2 -7 17 -9 17 -9 3 -1 -16
-8 -20 -31 -20 -3 0 -21 2 -41 6 l-35 6 3 -49 c2 -40 -1 -50 -15 -54 -9 -3 -1
-5 18 -5 19 0 29 2 23 5 -7 2 -13 14 -13 25 0 14 5 18 15 14 8 -3 15 0 15 6 0
6 8 4 18 -5 21 -20 32 -22 32 -6 0 5 -5 7 -12 3 -8 -5 -9 -2 -5 10 4 11 3 15
-4 10 -6 -4 -15 0 -20 7 -6 10 -9 11 -9 2 0 -17 -17 -17 -23 0 -8 22 51 13 73
-11 28 -30 25 -40 -13 -38 -21 1 -34 -4 -34 -11 0 -8 12 -11 35 -8 24 3 32 1
29 -8 -3 -9 18 -12 82 -11 76 1 79 1 31 -6 l-55 -7 53 -1 c39 -2 52 -6 52 -17
0 -8 6 -16 13 -17 6 0 -8 -4 -33 -8 l-45 -7 48 -1 c44 -2 60 9 37 23 -5 3 -10
17 -10 31 0 17 -5 24 -20 24 -11 0 -20 4 -20 9 0 5 8 7 18 5 9 -3 42 -1 72 5
l55 9 -47 -1 c-26 0 -51 2 -55 6 -9 10 38 58 50 50 6 -4 3 -11 -7 -18 -14 -10
-14 -14 -3 -18 8 -3 19 -1 25 5 6 6 12 6 17 -2 5 -8 14 -5 31 11 14 13 24 17
24 10 0 -7 4 -10 9 -7 17 11 39 -5 34 -25 -7 -24 -2 -24 41 0 19 11 37 17 41
13 4 -4 5 5 1 20 -7 29 10 49 20 24 3 -9 13 -16 21 -16 8 0 11 -4 8 -10 -3 -5
-1 -10 4 -10 18 0 12 18 -11 35 -23 17 -23 17 -1 11 12 -4 24 -2 28 3 5 9 -51
10 -142 2 -7 -1 -13 -11 -13 -23 0 -21 -2 -21 -20 7 -11 17 -20 24 -20 17 0
-7 -5 -10 -10 -7 -6 4 -17 1 -25 -5 -12 -10 -15 -9 -15 4 0 9 -7 16 -16 16
-14 0 -14 -1 0 -16 9 -8 13 -20 9 -26 -4 -7 -13 -3 -24 10 -17 22 -36 31 -24
13 10 -17 -12 -21 -25 -6 -17 20 -37 19 -44 -3 -4 -12 -18 -19 -43 -20 -52 -4
-55 -12 -4 -12 40 0 43 -2 37 -22 -3 -13 -6 -26 -6 -30 0 -5 -26 -7 -57 -6
l-58 1 55 7 55 7 -52 1 c-46 2 -53 5 -53 22 0 11 6 20 13 20 9 0 9 2 -1 8 -8
6 -10 19 -6 40 5 26 12 32 33 33 l26 1 -25 8 c-23 7 -23 8 -3 9 12 1 25 -3 28
-9 3 -5 14 -10 23 -9 11 0 12 3 5 6 -8 3 -13 25 -13 59 0 30 -3 54 -7 54 -5 1
-25 3 -45 6 -38 6 -38 5 -37 -28z m79 2 c0 -4 -11 -5 -25 -2 -14 2 -25 8 -25
12 0 4 11 5 25 2 14 -2 25 -8 25 -12z m94 -182 c-9 -9 -13 -22 -9 -27 3 -6 -1
-11 -9 -11 -9 0 -16 9 -16 21 0 11 4 18 9 15 5 -3 11 1 15 9 3 8 2 14 -2 14
-16 -3 -23 2 -17 11 4 6 13 5 25 -2 17 -11 18 -14 4 -30z m110 11 c-9 -10 -21
-16 -26 -13 -5 3 -2 14 8 25 9 10 21 16 26 13 5 -3 2 -14 -8 -25z m41 21 c3
-5 1 -10 -4 -10 -6 0 -11 5 -11 10 0 6 2 10 4 10 3 0 8 -4 11 -10z m91 -10 c9
0 12 -5 9 -10 -5 -8 -12 -7 -23 2 -14 11 -15 10 -8 -7 4 -11 4 -16 0 -12 -4 4
-12 0 -18 -8 -9 -12 -11 -9 -13 16 -2 24 1 30 12 25 8 -3 15 0 16 7 0 9 2 9 6
0 2 -7 11 -13 19 -13z"/>
<path d="M1281 748 l-1 -68 -92 -1 c-58 0 -85 -3 -73 -8 11 -5 39 -7 63 -4 32
3 42 1 42 -11 0 -8 6 -16 13 -19 6 -2 9 -7 6 -11 -3 -3 -18 3 -33 15 -21 17
-27 18 -24 6 2 -9 -1 -15 -7 -14 -5 1 -9 8 -9 15 2 10 -3 9 -16 -3 -16 -15
-18 -15 -24 1 -4 9 -9 14 -13 11 -3 -4 0 -13 7 -22 9 -11 9 -15 1 -15 -6 0
-16 11 -21 24 -5 13 -14 27 -21 32 -9 5 -10 2 -6 -9 3 -9 2 -19 -4 -23 -6 -3
-13 4 -16 16 -5 19 -11 21 -68 18 -59 -2 -62 -3 -51 -23 6 -11 16 -23 21 -27
7 -5 7 -8 0 -8 -5 0 -3 -5 5 -10 10 -6 11 -10 3 -10 -7 0 -22 9 -33 20 -12 12
-20 15 -20 8 -1 -7 -7 -2 -15 12 -16 29 -12 38 10 20 13 -11 14 -10 9 4 -4 10
-18 16 -41 16 -26 0 -34 -4 -30 -14 9 -22 -5 -27 -20 -8 -8 9 -4 -2 8 -25 12
-24 25 -41 27 -38 3 2 -1 11 -8 20 -7 9 -10 19 -6 23 9 9 37 -28 30 -39 -3 -5
0 -9 5 -9 16 0 14 8 -10 46 -15 24 -17 32 -6 28 14 -5 42 -53 39 -66 -1 -5 3
-8 8 -8 6 0 10 6 10 13 0 8 2 9 8 1 4 -6 27 -11 52 -11 25 0 48 5 52 11 6 8 8
7 8 -1 0 -17 47 -17 52 -1 5 15 40 17 51 3 5 -6 6 -2 3 8 -4 12 -2 17 6 14 7
-2 12 -10 11 -16 -4 -16 8 -13 22 6 13 18 39 9 31 -12 -2 -7 5 -16 17 -19 33
-9 47 -7 47 5 0 5 -4 7 -10 4 -5 -3 -10 0 -10 7 0 10 -2 10 -9 -1 -5 -8 -11
-9 -15 -3 -3 5 1 15 9 22 8 7 12 17 9 24 -4 6 5 -2 19 -19 14 -16 23 -33 21
-36 -6 -11 27 -20 47 -14 17 6 17 8 4 21 -8 8 -19 23 -25 32 -8 14 -11 14 -19
3 -7 -10 -12 -8 -24 10 -19 27 -11 42 8 16 9 -12 15 -15 20 -7 4 7 19 -3 41
-27 31 -35 33 -39 17 -50 -15 -12 -15 -13 -1 -13 9 0 20 9 23 21 5 16 10 18
21 8 10 -8 14 -8 14 0 0 6 -5 11 -11 11 -8 0 -8 4 0 14 6 7 8 21 5 30 -6 15
-8 15 -21 -1 -14 -17 -14 -17 -9 0 3 11 0 17 -9 17 -8 0 -14 -3 -14 -7 3 -20
-2 -24 -16 -13 -13 11 -13 15 -3 21 8 6 0 9 -22 9 l-35 0 3 49 c2 26 2 59 -1
72 -2 13 -5 -6 -6 -43z m-271 -97 c0 -11 6 -22 13 -24 9 -4 8 -8 -3 -16 -21
-15 -27 -14 -50 11 -29 31 -25 48 10 48 23 0 30 -5 30 -19z m35 0 c3 -11 12
-25 21 -32 12 -10 13 -9 9 4 -4 8 -2 18 3 21 6 3 12 -1 15 -8 7 -18 -18 -40
-37 -33 -15 6 -40 67 -26 67 5 0 11 -9 15 -19z m351 -36 c-16 -16 -36 -13 -36
7 0 5 7 8 15 5 8 -4 17 -2 21 4 3 6 8 8 11 5 3 -3 -2 -12 -11 -21z m-66 -15
c8 -16 8 -20 -2 -18 -23 5 -39 38 -18 38 5 0 14 -9 20 -20z"/>
<path d="M973 648 c2 -14 23 -38 32 -38 3 0 1 8 -4 19 -6 10 -7 21 -4 25 3 3
-1 6 -10 6 -9 0 -16 -6 -14 -12z"/>
<path d="M1080 751 c0 -27 -4 -30 -37 -34 l-38 -4 43 -1 c42 -2 42 -2 42 33 0
19 -2 35 -5 35 -3 0 -5 -13 -5 -29z"/>
<path d="M2181 734 c0 -11 3 -14 6 -6 3 7 2 16 -1 19 -3 4 -6 -2 -5 -13z"/>
<path d="M730 705 c-2 -16 -2 -47 -1 -67 2 -31 -1 -38 -16 -38 -11 0 -14 -3
-7 -8 16 -10 135 -2 129 8 -3 5 -17 7 -31 4 -14 -3 -33 1 -42 8 -12 10 -14 10
-8 1 4 -7 2 -13 -3 -13 -12 0 -15 43 -4 53 3 4 13 1 21 -6 8 -6 18 -11 21 -9
3 2 7 -2 10 -9 2 -8 -1 -9 -10 -4 -8 5 -10 4 -6 0 10 -12 37 -15 37 -5 0 4 -7
13 -15 20 -8 7 -12 16 -9 21 3 5 -6 9 -19 9 -18 0 -27 8 -35 33 l-10 32 -2
-30z"/>
<path d="M1880 695 c0 -8 4 -15 10 -15 5 0 7 7 4 15 -4 8 -8 15 -10 15 -2 0
-4 -7 -4 -15z"/>
<path d="M2273 703 c9 -2 23 -2 30 0 6 3 -1 5 -18 5 -16 0 -22 -2 -12 -5z"/>
<path d="M983 693 c9 -2 25 -2 35 0 9 3 1 5 -18 5 -19 0 -27 -2 -17 -5z"/>
<path d="M1053 693 c9 -2 25 -2 35 0 9 3 1 5 -18 5 -19 0 -27 -2 -17 -5z"/>
<path d="M1183 693 c9 -2 23 -2 30 0 6 3 -1 5 -18 5 -16 0 -22 -2 -12 -5z"/>
<path d="M2395 692 c-5 -4 -10 -20 -10 -37 0 -33 10 -45 40 -45 15 0 16 3 7
12 -7 7 -12 27 -12 45 0 33 -6 39 -25 25z"/>
<path d="M2256 678 c3 -5 13 -7 21 -3 13 4 13 3 4 -9 -12 -14 -51 -11 -51 5 0
5 -6 9 -12 9 -7 0 0 -12 15 -27 21 -21 30 -25 36 -15 4 7 15 10 24 6 29 -11
18 -22 -18 -20 -20 2 -38 0 -40 -4 -3 -5 20 -10 51 -12 43 -2 60 1 75 15 16
15 17 21 7 37 -9 13 -15 16 -20 7 -5 -8 -12 -7 -25 5 -19 17 -77 22 -67 6z
m68 -29 c-3 -5 2 -9 10 -9 9 0 16 5 16 11 0 5 5 7 10 4 6 -4 5 -12 -4 -21 -19
-18 -22 -18 -46 6 -23 23 -18 49 6 29 7 -6 11 -15 8 -20z"/>
<path d="M2103 671 c-38 -5 -40 -8 -28 -24 7 -10 16 -14 19 -8 3 5 3 11 -1 14
-5 2 -3 2 4 1 6 -2 26 1 44 6 25 7 39 6 56 -6 13 -8 21 -20 17 -26 -5 -7 -13
-4 -25 11 -11 13 -20 17 -24 11 -4 -6 -16 -8 -28 -5 -17 5 -19 4 -7 -4 8 -6
11 -11 5 -11 -5 0 1 -6 15 -14 14 -7 30 -9 36 -4 6 4 14 5 18 1 17 -17 24 22
8 43 -18 24 -32 26 -109 15z m78 -44 c-1 -12 -15 -9 -19 4 -3 6 1 10 8 8 6 -3
11 -8 11 -12z"/>
<path d="M2040 640 c0 -5 5 -10 10 -10 6 0 10 5 10 10 0 6 -4 10 -10 10 -5 0
-10 -4 -10 -10z"/>
<path d="M2100 629 c0 -6 -8 -8 -19 -4 -11 3 -22 1 -26 -5 -4 -6 5 -10 23 -10
17 0 32 6 36 15 3 8 1 15 -4 15 -6 0 -10 -5 -10 -11z"/>
<path d="M1830 595 c0 -8 29 -12 39 -5 9 5 4 8 -13 8 -14 0 -26 -2 -26 -3z"/>
<path d="M2374 579 c-2 -4 9 -9 25 -12 30 -6 71 1 71 12 0 8 -90 8 -96 0z"/>
<path d="M1985 569 c-48 -4 -38 -6 53 -7 61 -1 112 2 112 6 0 9 -77 10 -165 1z"/>
<path d="M2175 570 c29 -12 134 -12 115 0 -8 5 -42 9 -75 9 -43 0 -54 -3 -40
-9z"/>
<path d="M2323 573 c9 -2 23 -2 30 0 6 3 -1 5 -18 5 -16 0 -22 -2 -12 -5z"/>
<path d="M690 550 c0 -7 -18 -8 -52 -4 -39 5 -49 4 -43 -5 4 -7 14 -10 22 -7
9 4 21 2 28 -4 18 -15 197 1 202 17 3 9 -4 11 -24 8 -56 -10 -122 -11 -117 -3
3 4 0 8 -5 8 -6 0 -11 -5 -11 -10z"/>
<path d="M1115 540 c-95 -5 -70 -6 119 -8 132 -1 237 0 235 2 -8 7 -235 11
-354 6z"/>
<path d="M1770 540 c-39 -6 -33 -7 38 -8 49 -1 82 2 82 8 0 11 -50 11 -120 0z"/>
<path d="M913 533 c9 -2 25 -2 35 0 9 3 1 5 -18 5 -19 0 -27 -2 -17 -5z"/>
<path d="M1504 523 c-1 -10 -4 -27 -8 -38 -5 -15 -4 -14 5 3 8 15 22 22 43 23
30 2 30 2 4 6 -16 2 -28 9 -28 14 0 17 -16 9 -16 -8z"/>
<path d="M1558 493 c23 -2 61 -2 85 0 23 2 4 4 -43 4 -47 0 -66 -2 -42 -4z"/>
<path d="M1467 463 c-10 -10 -8 -33 2 -33 6 0 9 9 8 20 -1 23 -1 22 -10 13z"/>
<path d="M1538 463 c17 -2 47 -2 65 0 17 2 3 4 -33 4 -36 0 -50 -2 -32 -4z"/>
<path d="M1508 443 c12 -2 30 -2 40 0 9 3 -1 5 -23 4 -22 0 -30 -2 -17 -4z"/>
<path d="M1628 443 c12 -2 30 -2 40 0 9 3 -1 5 -23 4 -22 0 -30 -2 -17 -4z"/>
<path d="M1703 443 c9 -2 23 -2 30 0 6 3 -1 5 -18 5 -16 0 -22 -2 -12 -5z"/>
<path d="M708 382 c-28 -3 -38 -17 -18 -24 6 -2 -13 -70 -45 -162 -38 -108
-52 -163 -45 -170 14 -14 75 17 90 45 11 19 9 19 -24 -6 -26 -20 -36 -23 -36
-12 0 8 25 83 55 168 31 84 54 155 53 158 -2 3 -15 5 -30 3z"/>
<path d="M1938 382 c-26 -3 -41 -22 -18 -22 14 0 12 -26 -7 -86 -15 -48 -19
-53 -40 -48 -38 10 -97 -36 -128 -100 -52 -106 -11 -140 74 -61 l50 46 -11
-36 c-15 -48 0 -65 36 -41 14 9 31 26 37 38 12 22 11 22 -8 5 -18 -16 -43 -23
-43 -12 0 2 20 70 45 151 26 81 45 152 43 158 -2 6 -15 10 -30 8z m-58 -193
c0 -45 -77 -149 -110 -149 -35 0 5 104 57 150 36 32 53 32 53 -1z"/>
<path d="M2880 382 c-30 -4 -52 -22 -27 -22 9 0 17 -2 17 -4 0 -2 -25 -74 -56
-161 -38 -107 -52 -161 -45 -168 14 -14 66 9 86 39 21 32 8 30 -27 -3 -40 -39
-37 -19 28 163 30 86 54 157 52 158 -2 1 -14 0 -28 -2z"/>
<path d="M2452 373 c-17 -3 -21 -8 -13 -17 8 -9 -3 -55 -39 -161 -28 -82 -50
-155 -50 -162 0 -28 17 -11 38 38 11 28 26 48 31 44 6 -3 19 -26 30 -50 11
-25 23 -45 26 -45 16 0 46 23 56 43 12 22 12 22 -10 3 -19 -17 -23 -18 -36 -5
-7 8 -16 25 -19 39 -5 21 0 29 39 52 30 18 45 34 45 48 0 42 -46 34 -102 -18
-16 -14 -28 -23 -28 -20 0 3 16 49 35 102 36 100 40 117 28 115 -5 -1 -18 -4
-31 -6z m68 -176 c0 -18 -39 -53 -67 -62 -32 -9 -29 10 6 46 31 30 61 38 61
16z"/>
<path d="M125 336 c19 -14 19 -16 -12 -123 -43 -148 -49 -162 -75 -173 -17 -6
-5 -9 47 -9 52 0 64 3 48 9 -13 5 -23 15 -23 22 0 29 34 128 43 125 5 -1 26
-36 46 -77 l36 -75 50 -2 c28 -1 41 1 30 4 -11 3 -28 12 -39 22 -21 18 -79
128 -74 141 6 16 134 113 173 131 l40 19 -65 -1 c-55 0 -62 -2 -48 -13 16 -12
14 -16 -20 -48 -74 -70 -132 -105 -132 -78 0 30 43 118 63 128 18 9 11 11 -42
11 -58 1 -63 0 -46 -13z"/>
<path d="M2150 337 c30 -16 30 -16 -17 -162 -39 -122 -45 -132 -76 -138 -12
-2 38 -5 110 -6 l132 -1 16 30 c22 43 19 45 -20 11 -29 -26 -44 -31 -84 -31
-66 0 -74 12 -54 83 l16 57 48 0 c44 0 49 -2 50 -22 0 -18 4 -14 19 17 24 52
24 62 2 42 -23 -21 -117 -24 -110 -4 3 6 13 35 22 63 14 42 22 53 44 57 46 9
82 -3 82 -26 0 -25 15 -13 25 21 6 22 6 22 -112 22 -103 0 -115 -2 -93 -13z"/>
<path d="M1687 323 c-13 -12 -7 -33 8 -33 8 0 15 9 15 20 0 20 -11 26 -23 13z"/>
<path d="M805 250 c-10 -19 -24 -30 -38 -31 -17 -1 -18 -2 -4 -6 22 -6 22 -8
-12 -101 -17 -44 -27 -82 -24 -85 8 -9 56 12 81 35 31 30 27 44 -5 18 -38 -30
-40 -11 -9 65 21 53 28 61 58 66 32 6 32 6 4 8 -26 1 -28 3 -22 31 3 17 1 30
-4 30 -5 0 -16 -13 -25 -30z"/>
<path d="M398 199 c-23 -21 -26 -27 -11 -20 12 6 24 11 27 11 2 0 -9 -34 -26
-76 -45 -110 -21 -121 75 -36 29 27 39 31 33 17 -13 -34 -19 -75 -11 -75 15 0
73 41 79 55 4 13 1 12 -20 -1 -13 -9 -27 -14 -30 -12 -2 3 5 30 17 59 11 30
25 64 30 76 18 47 -11 30 -45 -26 -37 -61 -107 -132 -113 -114 -2 6 10 45 27
89 35 92 34 84 15 84 -8 0 -29 -14 -47 -31z"/>
<path d="M910 200 c-22 -19 -27 -27 -13 -20 12 5 24 10 26 10 3 0 -8 -34 -25
-76 -42 -110 -20 -120 75 -36 29 27 39 31 33 17 -13 -34 -19 -75 -11 -75 15 0
73 41 79 56 5 13 3 13 -16 -1 -43 -29 -42 -15 1 92 11 29 17 55 12 57 -10 7
-19 -4 -54 -65 -29 -51 -99 -118 -105 -101 -2 6 11 45 27 87 17 42 31 78 31
81 0 13 -30 0 -60 -26z"/>
<path d="M1136 208 c-22 -31 -20 -45 3 -24 32 29 33 1 2 -79 -17 -44 -25 -78
-19 -81 12 -7 11 -8 38 46 55 110 99 161 100 113 1 -16 2 -16 15 1 19 25 19
35 -1 43 -17 6 -70 -39 -80 -69 -3 -10 -9 -18 -14 -18 -4 0 -3 13 3 29 20 54
-16 84 -47 39z"/>
<path d="M1426 209 c-14 -11 -26 -25 -26 -31 0 -6 9 -3 20 7 25 23 25 17 -2
-67 -20 -62 -21 -70 -6 -84 14 -14 19 -14 44 -1 60 32 114 110 114 167 0 49
-25 31 -27 -19 -2 -49 -32 -102 -68 -121 -43 -23 -49 -2 -20 75 14 37 25 74
25 81 0 20 -23 17 -54 -7z"/>
<path d="M1641 209 c-18 -11 -31 -23 -27 -26 3 -3 12 0 21 7 27 22 25 7 -11
-75 -41 -93 -34 -112 25 -71 22 15 42 35 46 44 4 12 -1 10 -18 -6 -42 -40 -47
-25 -16 49 42 104 40 115 -20 78z"/>
<path d="M2642 210 c-58 -35 -91 -140 -56 -175 37 -37 123 23 144 101 11 38
10 47 -4 69 -20 30 -40 31 -84 5z m61 -33 c-4 -65 -66 -159 -93 -142 -8 5 -10
21 -6 47 17 107 104 191 99 95z"/>
<path d="M2927 212 c-21 -23 -22 -39 -2 -22 32 27 32 1 -1 -73 -57 -129 -42
-132 43 -8 57 83 96 121 106 104 3 -5 -12 -48 -33 -96 -21 -47 -35 -89 -30
-92 14 -8 53 11 79 39 27 29 18 36 -11 9 -29 -26 -30 -10 -3 52 30 68 30 99
-2 103 -16 2 -36 -10 -68 -43 -50 -52 -51 -52 -30 -2 8 19 11 37 8 41 -12 12
-40 6 -56 -12z"/>
</g>
</svg>
