<?xml version="1.0" encoding="utf-8"?>
<!-- Generator: Adobe Illustrator 23.0.2, SVG Export Plug-In . SVG Version: 6.00 Build 0)  -->
<svg version="1.1" id="Logo" xmlns="http://www.w3.org/2000/svg" xmlns:xlink="http://www.w3.org/1999/xlink" x="0px" y="0px"
	 viewBox="0 0 372.4 134.5" style="enable-background:new 0 0 372.4 134.5;" xml:space="preserve">
<style type="text/css">
	.st0{fill:#FEDD00;}
</style>
<g>
	<g>
		<path class="st0" d="M90.5,58.3c-0.6-2.9-3.1-5.2-5.8-5.7c0.4-4.2,1-8.4,1.9-12.5c0.7-3.3,1.5-6.6,2.4-9.9l0.2-0.7l-3.9-2.8
			c-4.2,0-8.2,1.6-11.4,4.2l-1.8,5.3l0,0c0.6,0.6,0.9,1.4,0.9,2.3c0,0.1,0,0.3,0,0.5c-0.2,1.5-1.5,2.7-3,2.8c-0.3,0-0.7,0-1.1-0.1
			c-1.3-0.3-2.3-1.4-2.5-2.7c0-0.2,0-0.4,0-0.5c0-1.5,1-2.8,2.4-3.2l1.7-5.1c-2.4-4.5-6.8-7.6-11.9-8.4L58,17.6h-3.9l-0.7,4.3
			c-5,0.8-9.4,3.9-11.9,8.4l1.7,5.1c1.4,0.4,2.4,1.7,2.4,3.2c0,0.1,0,0.3,0,0.5c-0.2,1.3-1.2,2.4-2.5,2.7c-0.4,0.1-0.7,0.1-1,0.1
			c-1.5-0.1-2.8-1.3-3-2.8c0-0.2,0-0.4,0-0.5c0-0.8,0.3-1.6,0.9-2.3l0,0l-1.8-5.3c-3.2-2.7-7.2-4.2-11.4-4.2l-3.9,2.8l0.2,0.7
			c1,3.3,1.8,6.6,2.4,9.9c0.8,4.1,1.5,8.3,1.9,12.5c-2.7,0.5-5.2,2.8-5.8,5.7c-0.4,2.1,0.1,4.3,1.4,6.1c1.2,1.6,3,2.3,4.9,2.3l0.6,0
			l1.5-0.3h1c0.4,9.5-1.8,23.5-1.8,23.5l1.8,0.6c2.9,1.2,5.2,2.6,7.5,4.5c0.8,0.7,1.6,1.3,2.4,1.9l12.9-2.4l-0.6-3.6
			c-5.7-1.2-9.9-6.1-9.9-6.1l2.9-17.4c0,0-1.2,1-3.8,0.5c-2.7-0.5-8.6-7.7-8.6-7.7l0.1-1.6c11.9,0,15.3,2.9,15.3,7.3l-0.3,16.3
			c0,0,3.1,2.7,6.8,2.7c3.6,0,6.8-2.7,6.8-2.7l-0.3-16.3c0-4.4,3.4-7.3,15.3-7.3l0.1,1.6c0,0-5.8,7.3-8.7,7.7
			c-2.8,0.4-3.7-0.5-3.7-0.5l2.9,17.4c0,0-4.2,4.8-9.9,6.1l-0.6,3.6L71,96.9c0.8-0.6,1.6-1.2,2.4-1.9c2.3-1.9,4.5-3.2,7.6-4.5
			l1.8-0.6c0,0-2.2-14-1.8-23.5h1l1.5,0.3l0.6,0c1.9-0.1,3.6-0.8,4.9-2.3C90.4,62.6,91,60.3,90.5,58.3z M34.5,34.9
			c-0.5,1.2-0.8,2.4-0.8,3.7c0,0.4,0,0.9,0.1,1.4c0.6,4,3.9,7,7.8,7.3c0.9,0.1,1.8,0,2.7-0.2c3.4-0.8,6-3.6,6.6-7.1
			c0.1-0.5,0.1-0.9,0.1-1.4c0-3-1.5-5.7-3.8-7.2c2.1-2.7,5.3-4.4,8.8-4.4c3.5,0,6.8,1.7,8.8,4.4c-2.3,1.6-3.8,4.2-3.8,7.2
			c0,0.4,0,0.9,0.1,1.4c0.6,3.5,3.1,6.3,6.6,7.1c0.9,0.2,1.8,0.3,2.7,0.2c4-0.3,7.2-3.3,7.8-7.3c0.1-0.5,0.1-0.9,0.1-1.4
			c0-1.3-0.3-2.6-0.8-3.7c1.5-1.2,3.3-2.1,5.3-2.5c-0.6,2.2-1.1,4.4-1.5,6.6c-0.9,4.3-1.5,8.7-2,13.1H32.8c-0.4-4.4-1.1-8.8-2-13.1
			c-0.4-2.2-1-4.4-1.5-6.6C31.2,32.8,33,33.6,34.5,34.9z"/>
		<path class="st0" d="M45.7,100.3c0,0,0.1,0.1,0.1,0.1c3.4,2.3,6.5,3.3,10.3,3.3c3.7,0,6.8-1,10.3-3.3c0,0,0.1-0.1,0.1-0.1L56.1,98
			L45.7,100.3z"/>
	</g>
	<g>
		<path class="st0" d="M134.5,55.4h7.8v30.5h0.2l12.6-15.6h8.7l-11.6,13.8l12.8,20.1h-8.7l-8.7-14.7l-5.3,6.1v8.6h-7.8V55.4z"/>
		<path class="st0" d="M163.7,87.3c0-11.3,7.7-17.8,16.2-17.8S196,76,196,87.3c0,11.3-7.7,17.8-16.2,17.8S163.7,98.5,163.7,87.3z
			 M187.8,87.3c0-6.8-3-11.3-8-11.3s-8,4.5-8,11.3s3,11.3,8,11.3S187.8,94.1,187.8,87.3z"/>
		<path class="st0" d="M200.5,70.3h6.5l0.6,4.6h0.2c2.9-3,6.2-5.5,10.4-5.5c5,0,7.8,2.3,9.4,6.1c3.2-3.5,6.6-6.1,10.9-6.1
			c7.2,0,10.5,4.9,10.5,13.5v21.3h-8V84c0-5.6-1.7-7.7-5.2-7.7c-2.2,0-4.5,1.4-7.1,4.2v23.7h-8V84c0-5.6-1.7-7.7-5.2-7.7
			c-2.1,0-4.5,1.4-7.1,4.2v23.7h-8V70.3z"/>
		<path class="st0" d="M254.8,70.3h6.5l0.6,4.6h0.2c2.9-3,6.2-5.5,10.4-5.5c5,0,7.8,2.3,9.4,6.1c3.2-3.5,6.6-6.1,10.9-6.1
			c7.2,0,10.5,4.9,10.5,13.5v21.3h-8V84c0-5.6-1.7-7.7-5.2-7.7c-2.2,0-4.5,1.4-7.1,4.2v23.7h-8V84c0-5.6-1.7-7.7-5.2-7.7
			c-2.1,0-4.5,1.4-7.1,4.2v23.7h-8V70.3z"/>
		<path class="st0" d="M309,91.6V70.3h8v20.3c0,5.6,1.6,7.7,5.3,7.7c3,0,5-1.4,7.5-4.7V70.3h8v34h-6.5l-0.6-5h-0.2
			c-3,3.5-6.3,5.8-10.9,5.8C312.2,105.1,309,100.1,309,91.6z"/>
		<path class="st0" d="M343.4,70.3h6.5l0.6,4.6h0.2c3-3,6.5-5.4,11.1-5.4c7.3,0,10.5,4.9,10.5,13.5v21.3h-8V84
			c0-5.6-1.6-7.7-5.3-7.7c-3,0-5,1.5-7.7,4.2v23.7h-8V70.3z"/>
	</g>
	<g>
		<path class="st0" d="M134.5,25.4V0h8v26c0,9.8,3.7,13.1,9.2,13.1c5.5,0,9.3-3.2,9.3-13.1V0h7.7v25.4c0,14.9-6.6,20.7-17.1,20.7
			C141.2,46.1,134.5,40.3,134.5,25.4z"/>
		<path class="st0" d="M174.4,11.3h6.5l0.6,3.6h0.2c2.9-2.5,6.5-4.5,10.2-4.5c8.5,0,13.4,6.8,13.4,17.3c0,11.6-6.9,18.3-14.5,18.3
			c-3,0-6-1.4-8.7-3.7l0.2,5.6v10.7h-8V11.3z M197.2,27.8c0-6.8-2.2-10.8-7.4-10.8c-2.5,0-4.8,1.2-7.4,3.8v15.8
			c2.4,2.1,4.8,2.8,6.8,2.8C193.7,39.5,197.2,35.5,197.2,27.8z"/>
		<path class="st0" d="M209.6,11.3h6.5l0.6,3.6h0.2c2.9-2.5,6.5-4.5,10.2-4.5c8.5,0,13.4,6.8,13.4,17.3c0,11.6-6.9,18.3-14.5,18.3
			c-3,0-6-1.4-8.7-3.7l0.2,5.6v10.7h-8V11.3z M232.4,27.8c0-6.8-2.2-10.8-7.4-10.8c-2.5,0-4.8,1.2-7.4,3.8v15.8
			c2.4,2.1,4.8,2.8,6.8,2.8C229,39.5,232.4,35.5,232.4,27.8z"/>
		<path class="st0" d="M242.8,41.4l3.7-5.1c3,2.4,5.9,3.8,9.4,3.8c3.7,0,5.4-1.7,5.4-4.1c0-2.8-3.7-4.1-7.3-5.5
			c-4.5-1.7-9.5-4.2-9.5-9.9c0-5.9,4.8-10.1,12.4-10.1c4.7,0,8.5,1.9,11.3,4.1l-3.7,4.9c-2.4-1.7-4.8-3-7.4-3c-3.4,0-5,1.6-5,3.8
			c0,2.7,3.4,3.7,7.1,5.1c4.6,1.7,9.7,3.9,9.7,10.3c0,5.8-4.6,10.5-13.2,10.5C251,46.1,246.1,44.1,242.8,41.4z"/>
		<path class="st0" d="M272.3,36.1c0-7.3,6-11.1,20-12.6c-0.1-3.7-1.6-6.7-6.2-6.7c-3.4,0-6.6,1.5-9.5,3.3l-2.9-5.3
			c3.7-2.4,8.5-4.5,13.9-4.5c8.5,0,12.7,5.2,12.7,14.7v20.1h-6.5l-0.6-3.8h-0.2c-3,2.6-6.5,4.6-10.5,4.6
			C276.3,46.1,272.3,42,272.3,36.1z M292.2,36.2v-7.6c-9.2,1.2-12.3,3.6-12.3,7c0,3,2,4.3,4.9,4.3C287.6,39.8,289.7,38.5,292.2,36.2
			z"/>
		<path class="st0" d="M318.1,36.1c0-7.3,6-11.1,20-12.6c-0.1-3.7-1.6-6.7-6.2-6.7c-3.4,0-6.6,1.5-9.5,3.3l-2.9-5.3
			c3.7-2.4,8.5-4.5,13.9-4.5c8.5,0,12.7,5.2,12.7,14.7v20.1h-6.5l-0.6-3.8h-0.2c-3,2.6-6.5,4.6-10.5,4.6
			C322.2,46.1,318.1,42,318.1,36.1z M338.1,36.2v-7.6c-9.2,1.2-12.3,3.6-12.3,7c0,3,2,4.3,4.9,4.3C333.5,39.8,335.6,38.5,338.1,36.2
			z"/>
		<rect x="305.9" class="st0" width="7.8" height="45.3"/>
	</g>
	<path class="st0" d="M89.7,0v7.3h15.1v75.4c0.6,13-4.4,24.5-13.9,32.6c-9,7.7-21.4,12-34.9,12s-25.9-4.2-34.9-12
		c-9.4-8.1-14.4-19.6-13.9-32.6V7.3h15.1V0H0v83.5c0,29.5,23.6,51,56,51s56-21.4,56-51V0H89.7z"/>
</g>
</svg>
